<svg xmlns="http://www.w3.org/2000/svg" viewBox="0 0 64 64" width="64" height="64">
  <!-- Outer Circle -->
  <circle cx="32" cy="32" r="30" fill="#FF8080" stroke="#000" stroke-width="2" />

  <!-- Sun -->
  <circle cx="20" cy="20" r="6" fill="#FFD700" />
  <line x1="20" y1="10" x2="20" y2="2" stroke="#FFD700" stroke-width="2" />
  <line x1="20" y1="30" x2="20" y2="38" stroke="#FFD700" stroke-width="2" />
  <line x1="10" y1="20" x2="2" y2="20" stroke="#FFD700" stroke-width="2" />
  <line x1="30" y1="20" x2="38" y2="20" stroke="#FFD700" stroke-width="2" />

  <!-- Palm Tree Trunk -->
  <rect x="28" y="28" width="6" height="16" rx="2" fill="#8B4513" />

  <!-- Palm Leaves -->
  <path d="M31 28 C20 15, 10 20, 31 20" fill="none" stroke="#006400" stroke-width="3" />
  <path d="M31 28 C42 15, 52 20, 31 20" fill="none" stroke="#006400" stroke-width="3" />
  <path d="M31 28 C22 30, 15 35, 31 35" fill="none" stroke="#006400" stroke-width="3" />
  <path d="M31 28 C40 30, 48 35, 31 35" fill="none" stroke="#006400" stroke-width="3" />

  <!-- Waves -->
  <path d="M10 50 C15 45, 25 45, 30 50 S45 55, 50 50" fill="none" stroke="#1E90FF" stroke-width="2" />
  <path d="M12 54 C17 49, 27 49, 32 54 S47 59, 52 54" fill="none" stroke="#1E90FF" stroke-width="2" />
</svg>
